<?xml version="1.0" encoding="UTF-8" standalone="no"?>
<!-- Created with Inkscape (http://www.inkscape.org/) -->

<svg
   version="1.1"
   id="svg1"
   width="1078.9426"
   height="1079.2579"
   viewBox="0 0 1078.9426 1079.2579"
   xmlns="http://www.w3.org/2000/svg"
   xmlns:svg="http://www.w3.org/2000/svg">
  <defs
     id="defs1" />
  <g
     id="g1"
     transform="translate(1.7331018,-0.51171811)">
    <path
       style="fill:#ffde59;fill-opacity:1"
       d="M 449.34211,696.20237 537.57538,1079.7696 626.31579,696.92606 807.0668,809.71994 694.47369,629.88658 1077.2095,540.27503 694.98356,451.16948 807.8809,270.66731 627.31282,383.2229 538.25658,0.51171811 449.14052,382.66465 268.27004,270.64405 380.84889,450.95628 -1.7331018,540.46112 381.22105,629.40771 268.64221,810.27818 Z"
       id="path1" />
  </g>
  <path
     style="fill:#000000;fill-opacity:0"
     d="M 0.0078125,539.3125 382.96094,450.36719 271.88256,269.78333 451.42139,382.06968 539.25731,0.04419417 630.25,381.45312 808.77344,270.07031 698.75,450.375 1080.5469,539.60937 698.58835,628.28647 811.25035,809.3942 630.29687,697.375 541.68799,1079.3764 451.10937,698.09375 271.78125,809.9375 382.58594,628.8125 Z"
     id="path2" />
</svg>
